<?xml version="1.0" encoding="UTF-8" standalone="no"?>
<!-- Created with Inkscape (http://www.inkscape.org/) -->

<svg
   width="101.6mm"
   height="128.5mm"
   viewBox="0 0 101.6 128.5"
   version="1.1"
   id="svg5"
   inkscape:version="1.1.1 (3bf5ae0d25, 2021-09-20)"
   sodipodi:docname="Samuel.svg"
   xmlns:inkscape="http://www.inkscape.org/namespaces/inkscape"
   xmlns:sodipodi="http://sodipodi.sourceforge.net/DTD/sodipodi-0.dtd"
   xmlns="http://www.w3.org/2000/svg"
   xmlns:svg="http://www.w3.org/2000/svg">
  <sodipodi:namedview
     id="namedview7"
     pagecolor="#ffffff"
     bordercolor="#666666"
     borderopacity="1.0"
     inkscape:pageshadow="2"
     inkscape:pageopacity="0.0"
     inkscape:pagecheckerboard="0"
     inkscape:document-units="mm"
     showgrid="false"
     inkscape:zoom="1.2810466"
     inkscape:cx="229.89015"
     inkscape:cy="257.21156"
     inkscape:window-width="1920"
     inkscape:window-height="1017"
     inkscape:window-x="-8"
     inkscape:window-y="-8"
     inkscape:window-maximized="1"
     inkscape:current-layer="layer1"
     width="101.6mm" />
  <defs
     id="defs2" />
  <g
     inkscape:label="Layer 1"
     inkscape:groupmode="layer"
     id="layer1">
    <rect
       style="fill:#f9fafb;fill-opacity:1;stroke-width:0.368097"
       id="rect846"
       width="101.6"
       height="128.5"
       x="0"
       y="0" />
    <g
       id="g130949"
       transform="translate(-116.25759,0.26417965)"
       style="display:inline">
      <rect
         style="display:inline;fill:#f4f1bb;fill-opacity:1;stroke-width:1.09761;stroke-miterlimit:4;stroke-dasharray:none"
         id="rect93213"
         width="3.5"
         height="131.71765"
         x="226.38889"
         y="-100.11375"
         transform="rotate(45)" />
      <rect
         style="display:inline;fill:#9bc1bc;fill-opacity:1;stroke-width:1.09761;stroke-miterlimit:4;stroke-dasharray:none"
         id="rect93233"
         width="3.5"
         height="131.71765"
         x="229.88889"
         y="-100.11375"
         transform="rotate(45)" />
      <rect
         style="display:inline;fill:#ed6a5a;fill-opacity:1;stroke-width:1.09761;stroke-miterlimit:4;stroke-dasharray:none"
         id="rect93109"
         width="3.5"
         height="131.71765"
         x="222.88844"
         y="-100.11375"
         transform="rotate(45)" />
    </g>
    <g
       aria-label="Daniel Davies"
       id="text158043"
       style="font-size:4.93889px;line-height:1.25;display:inline;stroke-width:0.264583"
       transform="translate(-71.120001,-0.41992)">
      <path
         d="m 106.74159,123.09153 q 0,0.50161 -0.2291,0.89951 -0.22909,0.3955 -0.57877,0.60772 -0.26286,0.15916 -0.57637,0.22186 -0.3135,0.0627 -0.74276,0.0627 h -1.26607 v -3.59082 h 1.30224 q 0.43891,0 0.75724,0.0748 0.31832,0.0724 0.53536,0.20739 0.37139,0.22669 0.5836,0.61254 0.21463,0.38344 0.21463,0.90434 z m -0.95739,-0.007 q 0,-0.3545 -0.13022,-0.6053 -0.12782,-0.25321 -0.40756,-0.3955 -0.14228,-0.0699 -0.2918,-0.094 -0.1471,-0.0265 -0.44614,-0.0265 h -0.23392 v 2.24758 h 0.23392 q 0.33039,0 0.48473,-0.0289 0.15434,-0.0314 0.30144,-0.11093 0.25322,-0.1447 0.37138,-0.38586 0.11817,-0.24356 0.11817,-0.60048 z"
         style="fill:#ed6a5a"
         id="path170552" />
      <path
         d="m 109.03982,124.17673 v -0.5643 q -0.17605,0.0145 -0.38103,0.041 -0.20498,0.0241 -0.31109,0.0579 -0.13023,0.041 -0.20016,0.12058 -0.0675,0.0772 -0.0675,0.20498 0,0.0844 0.0145,0.13746 0.0145,0.0531 0.0724,0.10129 0.0555,0.0482 0.13264,0.0724 0.0772,0.0217 0.24115,0.0217 0.13023,0 0.26286,-0.053 0.13505,-0.0531 0.23634,-0.13988 z m 0,0.41962 q -0.0699,0.053 -0.17364,0.12781 -0.10369,0.0748 -0.19533,0.11817 -0.12782,0.0579 -0.26528,0.0844 -0.13745,0.0289 -0.30144,0.0289 -0.38585,0 -0.6463,-0.23874 -0.26045,-0.23875 -0.26045,-0.61013 0,-0.29662 0.13264,-0.48473 0.13263,-0.1881 0.3762,-0.29662 0.24116,-0.10852 0.59807,-0.15434 0.35691,-0.0458 0.74035,-0.0675 v -0.0145 q 0,-0.22428 -0.18328,-0.30868 -0.18328,-0.0868 -0.54019,-0.0868 -0.21463,0 -0.4582,0.0772 -0.24357,0.0748 -0.34968,0.11576 h -0.0796 v -0.65354 q 0.13746,-0.0362 0.44614,-0.0844 0.3111,-0.0507 0.62219,-0.0507 0.74035,0 1.06832,0.2291 0.33039,0.22669 0.33039,0.71383 v 1.84243 h -0.86093 z"
         style="fill:#ed6a5a"
         id="path170554" />
      <path
         d="m 113.41922,124.88332 h -0.87298 v -1.34324 q 0,-0.16399 -0.0169,-0.32556 -0.0169,-0.16399 -0.0579,-0.24116 -0.0482,-0.0892 -0.14229,-0.13022 -0.0916,-0.041 -0.25803,-0.041 -0.11817,0 -0.24116,0.0386 -0.12058,0.0386 -0.26286,0.12299 v 1.9196 h -0.86816 v -2.70819 h 0.86816 v 0.29904 q 0.23151,-0.18087 0.44373,-0.27733 0.21463,-0.0965 0.47508,-0.0965 0.4389,0 0.68488,0.25563 0.24839,0.25563 0.24839,0.76447 z"
         style="fill:#ed6a5a"
         id="path170556" />
      <path
         d="m 115.08562,124.88332 h -0.86817 v -2.70819 h 0.86817 z m 0.0241,-3.09404 h -0.91639 v -0.65836 h 0.91639 z"
         style="fill:#ed6a5a"
         id="path170558" />
      <path
         d="m 118.57274,123.6896 h -1.98713 q 0.0193,0.31832 0.24116,0.48713 0.22427,0.16881 0.65836,0.16881 0.27491,0 0.53295,-0.0989 0.25804,-0.0989 0.40756,-0.21222 h 0.0965 v 0.69694 q -0.29421,0.11817 -0.55466,0.17123 -0.26045,0.053 -0.57637,0.053 -0.81511,0 -1.24919,-0.36656 -0.43408,-0.36656 -0.43408,-1.04421 0,-0.67041 0.40997,-1.06109 0.41237,-0.39308 1.12861,-0.39308 0.66077,0 0.99357,0.33521 0.33279,0.33279 0.33279,0.9598 z m -0.86334,-0.50884 q -0.007,-0.27251 -0.13505,-0.40997 -0.12781,-0.13746 -0.3979,-0.13746 -0.25081,0 -0.41238,0.13023 -0.16158,0.13022 -0.18087,0.4172 z"
         style="fill:#ed6a5a"
         id="path170560" />
      <path
         d="m 120.05345,124.88332 h -0.86817 v -3.7524 h 0.86817 z"
         style="fill:#ed6a5a"
         id="path170562" />
      <path
         d="m 126.00278,123.09153 q 0,0.50161 -0.2291,0.89951 -0.2291,0.3955 -0.57877,0.60772 -0.26286,0.15916 -0.57637,0.22186 -0.3135,0.0627 -0.74276,0.0627 h -1.26607 v -3.59082 h 1.30224 q 0.43891,0 0.75723,0.0748 0.31833,0.0724 0.53537,0.20739 0.37138,0.22669 0.5836,0.61254 0.21463,0.38344 0.21463,0.90434 z m -0.95739,-0.007 q 0,-0.3545 -0.13023,-0.6053 -0.12781,-0.25321 -0.40755,-0.3955 -0.14228,-0.0699 -0.2918,-0.094 -0.14711,-0.0265 -0.44614,-0.0265 h -0.23392 v 2.24758 h 0.23392 q 0.33038,0 0.48473,-0.0289 0.15434,-0.0314 0.30144,-0.11093 0.25322,-0.1447 0.37138,-0.38586 0.11817,-0.24356 0.11817,-0.60048 z"
         style="fill:#9bc1bc"
         id="path170564" />
      <path
         d="m 128.30101,124.17673 v -0.5643 q -0.17605,0.0145 -0.38103,0.041 -0.20499,0.0241 -0.31109,0.0579 -0.13023,0.041 -0.20016,0.12058 -0.0675,0.0772 -0.0675,0.20498 0,0.0844 0.0145,0.13746 0.0145,0.0531 0.0724,0.10129 0.0555,0.0482 0.13263,0.0724 0.0772,0.0217 0.24116,0.0217 0.13023,0 0.26286,-0.053 0.13505,-0.0531 0.23634,-0.13988 z m 0,0.41962 q -0.0699,0.053 -0.17364,0.12781 -0.10369,0.0748 -0.19533,0.11817 -0.12782,0.0579 -0.26528,0.0844 -0.13746,0.0289 -0.30144,0.0289 -0.38585,0 -0.6463,-0.23874 -0.26045,-0.23875 -0.26045,-0.61013 0,-0.29662 0.13263,-0.48473 0.13264,-0.1881 0.37621,-0.29662 0.24116,-0.10852 0.59807,-0.15434 0.35691,-0.0458 0.74035,-0.0675 v -0.0145 q 0,-0.22428 -0.18328,-0.30868 -0.18328,-0.0868 -0.54019,-0.0868 -0.21463,0 -0.4582,0.0772 -0.24357,0.0748 -0.34968,0.11576 h -0.0796 v -0.65354 q 0.13746,-0.0362 0.44614,-0.0844 0.31109,-0.0507 0.62219,-0.0507 0.74035,0 1.06832,0.2291 0.33038,0.22669 0.33038,0.71383 v 1.84243 h -0.86092 z"
         style="fill:#9bc1bc"
         id="path170566" />
      <path
         d="m 132.68765,122.17513 -1.04421,2.70819 h -0.98392 l -1.03698,-2.70819 h 0.91881 l 0.62701,1.86173 0.61977,-1.86173 z"
         style="fill:#9bc1bc"
         id="path170568" />
      <path
         d="m 134.03812,124.88332 h -0.86816 v -2.70819 h 0.86816 z m 0.0241,-3.09404 h -0.9164 v -0.65836 h 0.9164 z"
         style="fill:#9bc1bc"
         id="path170570" />
      <path
         d="m 137.52525,123.6896 h -1.98713 q 0.0193,0.31832 0.24115,0.48713 0.22428,0.16881 0.65836,0.16881 0.27492,0 0.53296,-0.0989 0.25804,-0.0989 0.40755,-0.21222 h 0.0965 v 0.69694 q -0.29421,0.11817 -0.55466,0.17123 -0.26045,0.053 -0.57637,0.053 -0.81511,0 -1.24919,-0.36656 -0.43408,-0.36656 -0.43408,-1.04421 0,-0.67041 0.40996,-1.06109 0.41238,-0.39308 1.12862,-0.39308 0.66077,0 0.99356,0.33521 0.3328,0.33279 0.3328,0.9598 z m -0.86334,-0.50884 q -0.007,-0.27251 -0.13505,-0.40997 -0.12781,-0.13746 -0.39791,-0.13746 -0.2508,0 -0.41238,0.13023 -0.16157,0.13022 -0.18086,0.4172 z"
         style="fill:#9bc1bc"
         id="path170572" />
      <path
         d="m 140.49148,124.02481 q 0,0.41961 -0.37621,0.67765 -0.3762,0.25562 -1.02974,0.25562 -0.36173,0 -0.65594,-0.0675 -0.29421,-0.0675 -0.47267,-0.14952 v -0.71382 h 0.0796 q 0.0651,0.0458 0.14952,0.10128 0.0868,0.0531 0.24357,0.11576 0.13505,0.0555 0.30627,0.0965 0.17122,0.0386 0.36655,0.0386 0.25563,0 0.37862,-0.0555 0.12299,-0.0579 0.12299,-0.16881 0,-0.0989 -0.0724,-0.14228 -0.0723,-0.0458 -0.27491,-0.0868 -0.0965,-0.0217 -0.26287,-0.0458 -0.16398,-0.0265 -0.29903,-0.0627 -0.36897,-0.0965 -0.54743,-0.29903 -0.17845,-0.20499 -0.17845,-0.50884 0,-0.39068 0.36897,-0.64872 0.37138,-0.26045 1.01286,-0.26045 0.30385,0 0.58118,0.0627 0.27975,0.0603 0.4365,0.13022 v 0.68489 h -0.0748 q -0.19293,-0.13264 -0.44132,-0.21463 -0.24598,-0.0844 -0.49919,-0.0844 -0.20981,0 -0.3545,0.0579 -0.14229,0.0579 -0.14229,0.16399 0,0.0965 0.0651,0.1471 0.0651,0.0506 0.30627,0.10129 0.13263,0.0265 0.28456,0.053 0.15434,0.0241 0.30868,0.0627 0.34244,0.0892 0.50643,0.28216 0.16399,0.19051 0.16399,0.47749 z"
         style="fill:#9bc1bc"
         id="path170574" />
    </g>
    <g
       aria-label="Samuel"
       id="text2183"
       style="font-size:10.5833px;font-family:Arial;-inkscape-font-specification:Arial;display:inline;fill:#ed6a5a;stroke-width:0.264583"
       transform="translate(-4.295e-4,9.8e-5)">
      <path
         d="M 5.7594295,15.722876 7.247706,15.578182 q 0.1343583,0.749306 0.5426008,1.100705 0.4134102,0.351398 1.1110398,0.351398 0.7389706,0 1.1110394,-0.310057 0.377237,-0.315225 0.377237,-0.733803 0,-0.268717 -0.160196,-0.454751 -0.155029,-0.191203 -0.5477688,-0.330728 -0.2687166,-0.09302 -1.2247275,-0.330729 -1.2298952,-0.30489 -1.7259874,-0.749305 -0.6976296,-0.625283 -0.6976296,-1.52445 0,-0.578775 0.3255605,-1.080034 0.3307281,-0.506428 0.9456757,-0.769977 0.6201152,-0.263549 1.4934442,-0.263549 1.4262649,0 2.1445649,0.625283 0.723468,0.625283 0.759641,1.669144 l -1.529617,0.06718 q -0.09818,-0.583942 -0.4237456,-0.837156 -0.3203929,-0.258381 -0.9663462,-0.258381 -0.6666239,0 -1.0438606,0.273884 -0.2428785,0.175699 -0.2428785,0.470254 0,0.268717 0.2273756,0.459919 0.2893871,0.242878 1.4055945,0.506427 1.1162078,0.263549 1.6484728,0.547769 0.537433,0.279052 0.837156,0.769976 0.30489,0.485757 0.30489,1.204057 0,0.651121 -0.361734,1.21956 -0.361734,0.568439 -1.02319,0.847491 -0.6614566,0.273884 -1.6484733,0.273884 -1.4366002,0 -2.2065766,-0.661456 -0.7699764,-0.666624 -0.9198376,-1.93786 z"
         id="path5725" />
      <path
         d="m 14.280846,14.374125 -1.317745,-0.237711 q 0.222208,-0.795814 0.764809,-1.178219 0.542601,-0.382404 1.612299,-0.382404 0.971514,0 1.446936,0.232543 0.475422,0.227376 0.666624,0.583942 0.19637,0.351399 0.19637,1.297074 l -0.0155,1.694982 q 0,0.723468 0.06718,1.069699 0.07235,0.341063 0.263549,0.733803 h -1.4366 q -0.05684,-0.144694 -0.139526,-0.428913 -0.03617,-0.129191 -0.05168,-0.170532 -0.372069,0.361734 -0.795814,0.542601 -0.423745,0.180867 -0.904335,0.180867 -0.847491,0 -1.338415,-0.459919 -0.485757,-0.459919 -0.485757,-1.162716 0,-0.465086 0.222208,-0.82682 0.222208,-0.366902 0.620115,-0.558104 0.403075,-0.19637 1.157549,-0.341063 1.018022,-0.191203 1.410762,-0.356567 v -0.144693 q 0,-0.418578 -0.206705,-0.594277 -0.206706,-0.180867 -0.780312,-0.180867 -0.387572,0 -0.604612,0.155029 -0.217041,0.149861 -0.351399,0.532265 z m 1.943028,1.178219 q -0.279052,0.09302 -0.883665,0.222208 -0.604612,0.129191 -0.790646,0.253214 -0.28422,0.201537 -0.28422,0.511595 0,0.30489 0.227376,0.527098 0.227375,0.222208 0.578774,0.222208 0.392739,0 0.749306,-0.258382 0.263549,-0.196369 0.346231,-0.480589 0.05684,-0.186034 0.05684,-0.707965 z"
         id="path5727" />
      <path
         d="m 18.97305,12.699814 h 1.338416 v 0.749306 q 0.7183,-0.873329 1.710484,-0.873329 0.527098,0 0.91467,0.21704 0.387572,0.217041 0.635618,0.656289 0.361734,-0.439248 0.780312,-0.656289 0.418578,-0.21704 0.893999,-0.21704 0.604613,0 1.02319,0.248046 0.418578,0.242879 0.625283,0.7183 0.149861,0.351399 0.149861,1.136878 v 3.508819 H 25.59278 v -3.13675 q 0,-0.816485 -0.149861,-1.054196 -0.201537,-0.310057 -0.620115,-0.310057 -0.30489,0 -0.573607,0.186034 -0.268716,0.186035 -0.387572,0.547769 -0.118855,0.356566 -0.118855,1.13171 v 2.63549 h -1.452103 v -3.007559 q 0,-0.800982 -0.07751,-1.033525 -0.07751,-0.232544 -0.242878,-0.346231 -0.160196,-0.113688 -0.439248,-0.113688 -0.335896,0 -0.604613,0.180867 -0.268716,0.180867 -0.387572,0.52193 -0.113687,0.341063 -0.113687,1.13171 v 2.666496 H 18.97305 Z"
         id="path5729" />
      <path
         d="m 32.103991,18.187834 v -0.821653 q -0.299722,0.439248 -0.790646,0.692462 -0.485757,0.253214 -1.028358,0.253214 -0.552936,0 -0.992185,-0.242879 -0.439248,-0.242878 -0.635618,-0.682126 -0.196369,-0.439249 -0.196369,-1.214393 v -3.472645 h 1.452103 v 2.521802 q 0,1.157548 0.07751,1.421097 0.08268,0.258382 0.294555,0.413411 0.211872,0.149861 0.537433,0.149861 0.372069,0 0.666624,-0.201538 0.294555,-0.206705 0.403075,-0.506427 0.10852,-0.30489 0.10852,-1.483109 v -2.315097 h 1.452103 v 5.48802 z"
         id="path5731" />
      <path
         d="m 38.134611,16.441176 1.446936,0.242878 q -0.279052,0.795815 -0.883664,1.214393 -0.599445,0.41341 -1.50378,0.41341 -1.431432,0 -2.118727,-0.935341 -0.5426,-0.749306 -0.5426,-1.891351 0,-1.364253 0.713132,-2.13423 0.713133,-0.775144 1.803502,-0.775144 1.224727,0 1.932692,0.811318 0.707965,0.806149 0.676959,2.475293 h -3.638009 q 0.0155,0.645953 0.351399,1.007687 0.335895,0.356566 0.837155,0.356566 0.341064,0 0.573607,-0.186034 0.232543,-0.186035 0.351398,-0.599445 z m 0.08268,-1.467606 q -0.0155,-0.630451 -0.32556,-0.956011 -0.310058,-0.330728 -0.754474,-0.330728 -0.475421,0 -0.785479,0.346231 -0.310057,0.346231 -0.30489,0.940508 z"
         id="path5733" />
      <path
         d="m 40.842446,18.187834 v -7.575741 h 1.452103 v 7.575741 z"
         id="path5735" />
    </g>
  </g>
  <g
     inkscape:groupmode="layer"
     id="layer4"
     inkscape:label="components"
     style="display:none">
    <circle
       style="fill:#00ff00;fill-opacity:1;stroke-width:0.493086"
       id="path846"
       cx="9.5108137"
       cy="10.061072"
       r="4.2340055"
       inkscape:label="INPUT_GATE_IN" />
    <circle
       style="fill:#0000ff;fill-opacity:1;stroke-width:0.493086"
       id="path846-0"
       cx="40.600124"
       cy="10.061072"
       r="4.2340055"
       inkscape:label="INPUT_GATE_OUT" />
  </g>
</svg>
