<?xml version="1.0" encoding="UTF-8" standalone="no"?>
<!-- Created with Inkscape (http://www.inkscape.org/) -->

<svg
   width="101.6mm"
   height="128.5mm"
   viewBox="0 0 101.6 128.5"
   version="1.1"
   id="svg5"
   inkscape:version="1.1.1 (3bf5ae0d25, 2021-09-20)"
   sodipodi:docname="Samuel.svg"
   xmlns:inkscape="http://www.inkscape.org/namespaces/inkscape"
   xmlns:sodipodi="http://sodipodi.sourceforge.net/DTD/sodipodi-0.dtd"
   xmlns="http://www.w3.org/2000/svg"
   xmlns:svg="http://www.w3.org/2000/svg">
  <sodipodi:namedview
     id="namedview7"
     pagecolor="#ffffff"
     bordercolor="#666666"
     borderopacity="1.0"
     inkscape:pageshadow="2"
     inkscape:pageopacity="0.0"
     inkscape:pagecheckerboard="0"
     inkscape:document-units="mm"
     showgrid="false"
     inkscape:zoom="0.90583674"
     inkscape:cx="18.215203"
     inkscape:cy="210.3028"
     inkscape:window-width="1920"
     inkscape:window-height="1017"
     inkscape:window-x="-8"
     inkscape:window-y="-8"
     inkscape:window-maximized="1"
     inkscape:current-layer="layer1"
     width="101.6mm" />
  <defs
     id="defs2" />
  <g
     inkscape:label="Layer 1"
     inkscape:groupmode="layer"
     id="layer1">
    <rect
       style="fill:#f9fafb;fill-opacity:1;stroke-width:0.368097"
       id="rect846"
       width="101.6"
       height="128.5"
       x="0"
       y="0" />
    <g
       id="g130949"
       transform="translate(-116.25759,0.26417965)"
       style="display:inline">
      <rect
         style="display:inline;fill:#f4f1bb;fill-opacity:1;stroke-width:1.09761;stroke-miterlimit:4;stroke-dasharray:none"
         id="rect93213"
         width="3.5"
         height="131.71765"
         x="226.38889"
         y="-100.11375"
         transform="rotate(45)" />
      <rect
         style="display:inline;fill:#9bc1bc;fill-opacity:1;stroke-width:1.09761;stroke-miterlimit:4;stroke-dasharray:none"
         id="rect93233"
         width="3.5"
         height="131.71765"
         x="229.88889"
         y="-100.11375"
         transform="rotate(45)" />
      <rect
         style="display:inline;fill:#ed6a5a;fill-opacity:1;stroke-width:1.09761;stroke-miterlimit:4;stroke-dasharray:none"
         id="rect93109"
         width="3.5"
         height="131.71765"
         x="222.88844"
         y="-100.11375"
         transform="rotate(45)" />
    </g>
    <g
       aria-label="Daniel Davies"
       id="text158043"
       style="font-size:4.93889px;line-height:1.25;display:inline;stroke-width:0.264583"
       transform="translate(-71.120001,-0.41992)">
      <path
         d="m 106.74159,123.09153 q 0,0.50161 -0.2291,0.89951 -0.22909,0.3955 -0.57877,0.60772 -0.26286,0.15916 -0.57637,0.22186 -0.3135,0.0627 -0.74276,0.0627 h -1.26607 v -3.59082 h 1.30224 q 0.43891,0 0.75724,0.0748 0.31832,0.0724 0.53536,0.20739 0.37139,0.22669 0.5836,0.61254 0.21463,0.38344 0.21463,0.90434 z m -0.95739,-0.007 q 0,-0.3545 -0.13022,-0.6053 -0.12782,-0.25321 -0.40756,-0.3955 -0.14228,-0.0699 -0.2918,-0.094 -0.1471,-0.0265 -0.44614,-0.0265 h -0.23392 v 2.24758 h 0.23392 q 0.33039,0 0.48473,-0.0289 0.15434,-0.0314 0.30144,-0.11093 0.25322,-0.1447 0.37138,-0.38586 0.11817,-0.24356 0.11817,-0.60048 z"
         style="fill:#ed6a5a"
         id="path170552" />
      <path
         d="m 109.03982,124.17673 v -0.5643 q -0.17605,0.0145 -0.38103,0.041 -0.20498,0.0241 -0.31109,0.0579 -0.13023,0.041 -0.20016,0.12058 -0.0675,0.0772 -0.0675,0.20498 0,0.0844 0.0145,0.13746 0.0145,0.0531 0.0724,0.10129 0.0555,0.0482 0.13264,0.0724 0.0772,0.0217 0.24115,0.0217 0.13023,0 0.26286,-0.053 0.13505,-0.0531 0.23634,-0.13988 z m 0,0.41962 q -0.0699,0.053 -0.17364,0.12781 -0.10369,0.0748 -0.19533,0.11817 -0.12782,0.0579 -0.26528,0.0844 -0.13745,0.0289 -0.30144,0.0289 -0.38585,0 -0.6463,-0.23874 -0.26045,-0.23875 -0.26045,-0.61013 0,-0.29662 0.13264,-0.48473 0.13263,-0.1881 0.3762,-0.29662 0.24116,-0.10852 0.59807,-0.15434 0.35691,-0.0458 0.74035,-0.0675 v -0.0145 q 0,-0.22428 -0.18328,-0.30868 -0.18328,-0.0868 -0.54019,-0.0868 -0.21463,0 -0.4582,0.0772 -0.24357,0.0748 -0.34968,0.11576 h -0.0796 v -0.65354 q 0.13746,-0.0362 0.44614,-0.0844 0.3111,-0.0507 0.62219,-0.0507 0.74035,0 1.06832,0.2291 0.33039,0.22669 0.33039,0.71383 v 1.84243 h -0.86093 z"
         style="fill:#ed6a5a"
         id="path170554" />
      <path
         d="m 113.41922,124.88332 h -0.87298 v -1.34324 q 0,-0.16399 -0.0169,-0.32556 -0.0169,-0.16399 -0.0579,-0.24116 -0.0482,-0.0892 -0.14229,-0.13022 -0.0916,-0.041 -0.25803,-0.041 -0.11817,0 -0.24116,0.0386 -0.12058,0.0386 -0.26286,0.12299 v 1.9196 h -0.86816 v -2.70819 h 0.86816 v 0.29904 q 0.23151,-0.18087 0.44373,-0.27733 0.21463,-0.0965 0.47508,-0.0965 0.4389,0 0.68488,0.25563 0.24839,0.25563 0.24839,0.76447 z"
         style="fill:#ed6a5a"
         id="path170556" />
      <path
         d="m 115.08562,124.88332 h -0.86817 v -2.70819 h 0.86817 z m 0.0241,-3.09404 h -0.91639 v -0.65836 h 0.91639 z"
         style="fill:#ed6a5a"
         id="path170558" />
      <path
         d="m 118.57274,123.6896 h -1.98713 q 0.0193,0.31832 0.24116,0.48713 0.22427,0.16881 0.65836,0.16881 0.27491,0 0.53295,-0.0989 0.25804,-0.0989 0.40756,-0.21222 h 0.0965 v 0.69694 q -0.29421,0.11817 -0.55466,0.17123 -0.26045,0.053 -0.57637,0.053 -0.81511,0 -1.24919,-0.36656 -0.43408,-0.36656 -0.43408,-1.04421 0,-0.67041 0.40997,-1.06109 0.41237,-0.39308 1.12861,-0.39308 0.66077,0 0.99357,0.33521 0.33279,0.33279 0.33279,0.9598 z m -0.86334,-0.50884 q -0.007,-0.27251 -0.13505,-0.40997 -0.12781,-0.13746 -0.3979,-0.13746 -0.25081,0 -0.41238,0.13023 -0.16158,0.13022 -0.18087,0.4172 z"
         style="fill:#ed6a5a"
         id="path170560" />
      <path
         d="m 120.05345,124.88332 h -0.86817 v -3.7524 h 0.86817 z"
         style="fill:#ed6a5a"
         id="path170562" />
      <path
         d="m 126.00278,123.09153 q 0,0.50161 -0.2291,0.89951 -0.2291,0.3955 -0.57877,0.60772 -0.26286,0.15916 -0.57637,0.22186 -0.3135,0.0627 -0.74276,0.0627 h -1.26607 v -3.59082 h 1.30224 q 0.43891,0 0.75723,0.0748 0.31833,0.0724 0.53537,0.20739 0.37138,0.22669 0.5836,0.61254 0.21463,0.38344 0.21463,0.90434 z m -0.95739,-0.007 q 0,-0.3545 -0.13023,-0.6053 -0.12781,-0.25321 -0.40755,-0.3955 -0.14228,-0.0699 -0.2918,-0.094 -0.14711,-0.0265 -0.44614,-0.0265 h -0.23392 v 2.24758 h 0.23392 q 0.33038,0 0.48473,-0.0289 0.15434,-0.0314 0.30144,-0.11093 0.25322,-0.1447 0.37138,-0.38586 0.11817,-0.24356 0.11817,-0.60048 z"
         style="fill:#9bc1bc"
         id="path170564" />
      <path
         d="m 128.30101,124.17673 v -0.5643 q -0.17605,0.0145 -0.38103,0.041 -0.20499,0.0241 -0.31109,0.0579 -0.13023,0.041 -0.20016,0.12058 -0.0675,0.0772 -0.0675,0.20498 0,0.0844 0.0145,0.13746 0.0145,0.0531 0.0724,0.10129 0.0555,0.0482 0.13263,0.0724 0.0772,0.0217 0.24116,0.0217 0.13023,0 0.26286,-0.053 0.13505,-0.0531 0.23634,-0.13988 z m 0,0.41962 q -0.0699,0.053 -0.17364,0.12781 -0.10369,0.0748 -0.19533,0.11817 -0.12782,0.0579 -0.26528,0.0844 -0.13746,0.0289 -0.30144,0.0289 -0.38585,0 -0.6463,-0.23874 -0.26045,-0.23875 -0.26045,-0.61013 0,-0.29662 0.13263,-0.48473 0.13264,-0.1881 0.37621,-0.29662 0.24116,-0.10852 0.59807,-0.15434 0.35691,-0.0458 0.74035,-0.0675 v -0.0145 q 0,-0.22428 -0.18328,-0.30868 -0.18328,-0.0868 -0.54019,-0.0868 -0.21463,0 -0.4582,0.0772 -0.24357,0.0748 -0.34968,0.11576 h -0.0796 v -0.65354 q 0.13746,-0.0362 0.44614,-0.0844 0.31109,-0.0507 0.62219,-0.0507 0.74035,0 1.06832,0.2291 0.33038,0.22669 0.33038,0.71383 v 1.84243 h -0.86092 z"
         style="fill:#9bc1bc"
         id="path170566" />
      <path
         d="m 132.68765,122.17513 -1.04421,2.70819 h -0.98392 l -1.03698,-2.70819 h 0.91881 l 0.62701,1.86173 0.61977,-1.86173 z"
         style="fill:#9bc1bc"
         id="path170568" />
      <path
         d="m 134.03812,124.88332 h -0.86816 v -2.70819 h 0.86816 z m 0.0241,-3.09404 h -0.9164 v -0.65836 h 0.9164 z"
         style="fill:#9bc1bc"
         id="path170570" />
      <path
         d="m 137.52525,123.6896 h -1.98713 q 0.0193,0.31832 0.24115,0.48713 0.22428,0.16881 0.65836,0.16881 0.27492,0 0.53296,-0.0989 0.25804,-0.0989 0.40755,-0.21222 h 0.0965 v 0.69694 q -0.29421,0.11817 -0.55466,0.17123 -0.26045,0.053 -0.57637,0.053 -0.81511,0 -1.24919,-0.36656 -0.43408,-0.36656 -0.43408,-1.04421 0,-0.67041 0.40996,-1.06109 0.41238,-0.39308 1.12862,-0.39308 0.66077,0 0.99356,0.33521 0.3328,0.33279 0.3328,0.9598 z m -0.86334,-0.50884 q -0.007,-0.27251 -0.13505,-0.40997 -0.12781,-0.13746 -0.39791,-0.13746 -0.2508,0 -0.41238,0.13023 -0.16157,0.13022 -0.18086,0.4172 z"
         style="fill:#9bc1bc"
         id="path170572" />
      <path
         d="m 140.49148,124.02481 q 0,0.41961 -0.37621,0.67765 -0.3762,0.25562 -1.02974,0.25562 -0.36173,0 -0.65594,-0.0675 -0.29421,-0.0675 -0.47267,-0.14952 v -0.71382 h 0.0796 q 0.0651,0.0458 0.14952,0.10128 0.0868,0.0531 0.24357,0.11576 0.13505,0.0555 0.30627,0.0965 0.17122,0.0386 0.36655,0.0386 0.25563,0 0.37862,-0.0555 0.12299,-0.0579 0.12299,-0.16881 0,-0.0989 -0.0724,-0.14228 -0.0723,-0.0458 -0.27491,-0.0868 -0.0965,-0.0217 -0.26287,-0.0458 -0.16398,-0.0265 -0.29903,-0.0627 -0.36897,-0.0965 -0.54743,-0.29903 -0.17845,-0.20499 -0.17845,-0.50884 0,-0.39068 0.36897,-0.64872 0.37138,-0.26045 1.01286,-0.26045 0.30385,0 0.58118,0.0627 0.27975,0.0603 0.4365,0.13022 v 0.68489 h -0.0748 q -0.19293,-0.13264 -0.44132,-0.21463 -0.24598,-0.0844 -0.49919,-0.0844 -0.20981,0 -0.3545,0.0579 -0.14229,0.0579 -0.14229,0.16399 0,0.0965 0.0651,0.1471 0.0651,0.0506 0.30627,0.10129 0.13263,0.0265 0.28456,0.053 0.15434,0.0241 0.30868,0.0627 0.34244,0.0892 0.50643,0.28216 0.16399,0.19051 0.16399,0.47749 z"
         style="fill:#9bc1bc"
         id="path170574" />
    </g>
  </g>
  <g
     inkscape:groupmode="layer"
     id="layer4"
     inkscape:label="components"
     style="display:none">
    <circle
       style="fill:#00ff00;fill-opacity:1;stroke-width:0.493086"
       id="path846"
       cx="9.5108137"
       cy="10.061072"
       r="4.2340055"
       inkscape:label="INPUT_GATE_IN" />
    <circle
       style="fill:#0000ff;fill-opacity:1;stroke-width:0.493086"
       id="path846-0"
       cx="40.600124"
       cy="10.061072"
       r="4.2340055"
       inkscape:label="INPUT_GATE_OUT" />
  </g>
</svg>
